<?xml version="1.0" standalone="no"?>
<svg version="1.0" xmlns="http://www.w3.org/2000/svg"
 width="56.3px" height="70.9px" viewBox="0 0 563.000000 709.000000"
 preserveAspectRatio="xMidYMid meet">
<metadata>
Created by potrace 1.16, written by Peter Selinger 2001-2019
</metadata>
<g transform="translate(0.000000,709.000000) scale(0.100000,-0.100000)"
fill="#000000" stroke="none">
<path d="M2670 6913 c-170 -21 -448 -73 -495 -93 -11 -5 -33 -11 -50 -15 -28
-6 -170 -59 -245 -92 -77 -34 -229 -112 -293 -151 -37 -23 -71 -42 -76 -42 -5
0 -16 -6 -23 -13 -7 -7 -42 -33 -78 -57 -36 -25 -78 -57 -95 -72 -16 -16 -33
-28 -36 -28 -21 0 -379 -352 -379 -373 0 -7 -17 -30 -38 -51 -20 -22 -49 -58
-64 -80 -15 -23 -46 -68 -69 -101 -103 -148 -222 -396 -298 -621 -44 -133
-105 -410 -82 -374 6 8 13 33 16 55 13 87 68 282 111 393 25 64 48 125 51 135
11 35 120 242 172 327 318 516 783 896 1340 1096 189 68 394 114 621 138 69 8
116 14 105 15 -11 1 -29 3 -40 5 -11 2 -36 1 -55 -1z"/>
<path d="M3486 6830 c218 -56 494 -171 674 -282 94 -57 243 -159 280 -191 136
-118 228 -205 280 -264 75 -85 142 -168 174 -216 22 -31 44 -57 49 -57 23 0
-16 55 -161 229 -72 86 -176 187 -325 314 -32 27 -57 56 -57 65 0 11 -3 13 -8
6 -5 -8 -17 -5 -38 10 -75 51 -145 96 -148 96 -3 0 -31 17 -63 38 -85 56 -327
167 -459 210 -111 37 -250 72 -279 71 -17 0 20 -14 81 -29z"/>
<path d="M2803 6573 c-27 -4 -33 -9 -33 -29 0 -26 -17 -33 -26 -9 -9 22 -20
19 -67 -17 -23 -18 -44 -34 -46 -35 -2 -2 2 -15 9 -31 8 -15 16 -31 18 -35 2
-4 -13 -1 -34 8 -42 17 -50 12 -61 -38 -3 -18 -11 -26 -19 -23 -16 6 -37 -53
-28 -77 4 -10 0 -19 -9 -23 -50 -19 -70 -263 -34 -389 27 -89 77 -212 103
-251 14 -20 24 -50 24 -69 0 -19 5 -35 10 -35 11 0 13 -39 4 -65 -11 -27 -142
-106 -225 -135 -206 -72 -251 -167 -264 -555 -3 -110 -10 -211 -15 -225 -5
-14 -43 -116 -84 -228 -54 -143 -76 -217 -76 -250 l-1 -47 -13 31 c-8 17 -27
42 -43 55 l-30 24 -47 808 c-46 800 -47 808 -28 835 19 25 19 27 2 76 -46 127
-78 200 -84 186 -3 -8 -14 -66 -24 -129 l-18 -114 26 -24 c26 -22 27 -30 33
-146 4 -67 25 -439 48 -826 l41 -705 -30 -25 c-44 -38 -51 -60 -46 -132 7 -90
28 -142 64 -156 18 -7 31 -20 34 -34 2 -13 14 -188 26 -389 21 -363 35 -599
85 -1407 15 -232 25 -439 23 -459 -3 -35 -6 -39 -41 -46 -54 -11 -135 -47
-141 -63 -19 -51 136 -98 421 -129 656 -72 1644 -11 1717 106 24 39 -65 77
-256 108 -134 22 -182 25 -160 11 8 -5 12 -17 10 -27 -10 -56 -132 0 -176 81
-15 26 -18 84 -22 450 -3 237 -8 400 -12 375 -33 -194 -49 -772 -26 -883 14
-64 14 -69 -3 -78 -14 -7 -31 -3 -68 16 -43 21 -51 30 -57 62 -13 69 4 510 27
693 16 130 22 236 23 412 0 131 3 232 5 225 2 -6 10 -32 16 -57 l12 -45 6 60
c4 33 14 155 22 270 8 116 18 244 22 285 l7 75 7 -105 c4 -58 8 -161 9 -230
l2 -125 19 90 c11 50 23 122 27 160 l8 70 12 -45 c10 -40 11 -31 7 70 -4 104
-32 386 -41 418 -7 26 -38 25 -90 -2 -37 -20 -94 -72 -195 -178 -201 -212
-318 -295 -430 -306 -67 -6 -102 11 -139 67 -36 58 -39 73 -5 33 82 -98 215
-66 382 92 119 112 279 333 308 425 11 37 -2 23 -35 -36 -29 -51 -135 -193
-144 -193 -2 0 9 32 26 71 16 39 28 73 26 75 -2 2 -24 -26 -47 -62 -72 -109
-229 -256 -328 -307 -51 -27 -99 -22 -135 13 -33 33 -32 48 0 31 62 -33 147
-2 248 91 109 100 310 379 397 549 31 62 47 83 60 81 15 -3 15 1 -3 53 -16 47
-18 65 -9 105 9 43 8 53 -14 97 l-25 48 19 70 c10 39 18 87 18 108 1 20 5 37
9 37 7 0 37 -38 92 -114 34 -48 114 -125 141 -137 44 -18 293 -6 393 19 67 17
90 19 145 10 81 -13 226 -5 273 15 32 13 68 50 68 69 0 4 -16 -2 -36 -14 l-37
-21 12 21 c23 43 6 43 -51 2 -22 -16 -45 -30 -50 -30 -17 0 32 59 55 66 55 17
207 158 207 191 0 8 -7 16 -15 19 -21 8 -19 27 6 59 l22 27 -28 25 c-24 23
-26 30 -20 69 3 25 17 68 30 97 21 45 24 66 22 137 -5 146 -40 185 -170 185
-66 0 -91 -5 -127 -23 -64 -33 -103 -91 -108 -163 -4 -54 -7 -59 -48 -88 -72
-52 -104 -89 -167 -193 -9 -14 -21 -46 -28 -71 -9 -38 -21 -53 -75 -96 -65
-53 -73 -71 -28 -71 13 0 24 -6 24 -12 0 -7 3 -23 6 -34 4 -15 -4 -33 -28 -59
-52 -60 -110 -77 -190 -55 -47 13 -68 47 -113 181 -38 115 -43 112 -19 -11 8
-45 13 -84 11 -86 -12 -13 -57 143 -80 281 -1 11 -9 -9 -17 -45 l-14 -65 -6
102 c-6 94 -9 107 -50 187 -24 48 -47 89 -52 92 -4 3 -8 -12 -8 -33 0 -37 10
-63 56 -141 19 -33 19 -33 -1 -50 -11 -10 -31 -40 -45 -67 -14 -26 -36 -55
-50 -64 l-25 -15 21 24 c33 40 55 80 44 80 -15 0 -352 -277 -528 -434 l-23
-20 17 39 c21 53 75 123 168 220 66 68 166 200 166 218 0 3 -20 -6 -46 -20
-50 -28 -62 -26 -44 7 6 12 10 23 8 25 -2 3 -54 -21 -114 -52 -85 -43 -123
-56 -165 -59 -41 -3 -48 -2 -27 5 34 11 88 43 88 52 0 4 -15 3 -32 -2 -60 -17
-97 -11 -129 20 -39 40 -37 53 6 35 52 -21 62 -17 32 14 -45 47 -54 83 -49
193 3 70 1 99 -7 99 -6 0 -11 -7 -11 -16 0 -9 -6 -35 -12 -58 l-13 -41 -6 35
c-5 30 -7 32 -13 15 -22 -56 -67 -147 -70 -144 -2 2 0 29 5 58 4 30 7 57 4 59
-2 2 -17 -22 -34 -54 -37 -72 -38 -63 -6 41 13 43 23 81 21 82 -11 11 -76
-114 -131 -252 -7 -18 -9 -17 -15 10 -4 17 -8 57 -9 91 -3 142 59 235 180 272
95 29 152 58 203 103 24 21 49 39 54 39 23 0 49 51 56 107 10 85 37 165 51
153 14 -11 44 18 68 66 20 39 66 94 78 94 5 0 9 -13 9 -30 0 -23 7 -33 30 -45
16 -8 40 -15 54 -15 34 0 81 42 73 64 -8 21 -66 46 -109 47 -60 1 1 18 67 18
67 1 145 -28 145 -54 0 -21 17 -19 30 4 18 35 11 49 -42 75 -75 37 -164 36
-241 -2 -63 -32 -64 -20 -2 43 19 19 35 37 35 40 0 8 -49 -24 -105 -70 l-49
-40 33 58 c18 31 27 57 21 57 -6 0 -33 -22 -60 -50 -28 -27 -50 -47 -50 -44 0
12 35 73 69 119 l36 50 -31 -22 c-40 -29 -95 -96 -128 -158 -15 -27 -24 -39
-20 -25 16 62 79 162 139 219 l64 61 -17 29 c-33 58 20 107 104 98 l40 -4 18
50 c11 31 36 68 67 99 l49 49 -28 10 c-15 6 -43 25 -62 44 -49 46 -126 62
-237 48z m89 -140 l3 -68 24 68 c23 62 27 67 54 67 15 0 37 -4 47 -10 17 -9
16 -14 -16 -87 -18 -43 -34 -84 -34 -90 0 -9 -17 -13 -49 -13 -27 0 -61 -4
-75 -10 -25 -9 -26 -8 -20 15 5 21 3 25 -15 25 -11 0 -28 11 -37 25 -15 23
-47 115 -40 115 2 0 19 -24 37 -52 l34 -53 5 50 5 50 8 -37 c11 -52 22 -48 22
8 1 41 13 63 37 64 4 0 8 -30 10 -67z m1373 -1163 c16 -18 20 -19 35 -5 56 50
119 13 128 -75 l5 -50 -54 -25 c-30 -14 -68 -25 -86 -25 -38 0 -136 35 -152
54 -14 16 9 98 35 127 22 25 66 24 89 -1z m-1857 -671 l29 -117 -24 -78 c-75
-242 -121 -381 -158 -476 l-43 -107 51 -48 51 -47 -22 -81 c-12 -44 -28 -99
-34 -123 -12 -41 -11 -47 20 -106 17 -34 32 -66 32 -72 0 -5 -25 -89 -55 -186
-30 -97 -55 -182 -55 -189 0 -7 11 -24 24 -38 l24 -26 -55 -220 -55 -219 41
-38 41 -38 -45 -126 -44 -127 19 -27 c10 -15 26 -32 33 -39 13 -10 11 -25 -9
-109 -37 -149 -126 -453 -131 -448 -4 4 -40 559 -98 1496 -8 140 -22 367 -31
503 l-16 249 41 35 c23 19 41 40 41 46 1 7 41 59 90 117 49 57 109 138 134
180 47 78 63 128 137 443 18 75 33 136 35 135 1 -2 16 -55 32 -119z m502 -221
c0 -7 -11 -37 -25 -66 -28 -61 -110 -146 -176 -181 l-44 -24 20 24 c11 13 33
39 49 57 56 60 7 33 -117 -66 -168 -133 -24 13 188 191 93 78 105 86 105 65z
m239 -170 c1 -84 -1 -90 -42 -171 -100 -194 -293 -415 -416 -475 -61 -31 -119
-40 -155 -26 -19 7 -34 33 -47 77 l-9 31 33 -32 c41 -40 97 -44 147 -9 46 30
48 45 8 39 -31 -4 -29 -1 29 37 143 96 255 257 330 476 13 39 42 98 66 133 41
61 42 62 48 35 4 -16 7 -67 8 -115z m-184 -33 c-20 -93 -90 -236 -144 -297
-76 -85 -193 -122 -261 -81 -15 9 -38 34 -51 56 -22 41 -19 41 33 5 36 -25 42
-23 21 8 l-17 26 35 -21 c65 -40 131 -20 204 62 46 50 107 150 120 197 l7 25
-28 -26 c-30 -27 -127 -99 -154 -114 -21 -11 -5 4 86 84 40 34 91 86 115 117
24 30 45 50 47 44 2 -6 -4 -44 -13 -85z m211 -911 c-4 -14 -7 -202 -6 -417 0
-407 -8 -659 -21 -635 -4 7 -13 178 -20 379 -10 288 -10 386 -1 464 13 105 40
235 49 235 3 0 2 -12 -1 -26z m-182 -754 c-5 -154 -27 -376 -38 -387 -2 -2 -2
33 0 79 2 46 6 232 9 413 2 182 8 350 12 375 12 70 24 -271 17 -480z m82 -584
l-7 -591 -56 2 c-30 1 -57 4 -60 6 -2 3 1 34 7 70 25 156 80 730 96 1004 4 69
11 110 17 106 6 -4 7 -213 3 -597z m-206 356 c18 -192 -14 -483 -75 -687 l-15
-50 5 68 c3 37 3 67 1 67 -3 0 -23 -34 -46 -75 -23 -41 -43 -75 -45 -75 -2 0
6 33 16 73 38 146 83 434 125 807 7 61 8 63 15 30 5 -19 13 -90 19 -158z"/>
<path d="M2805 5630 c-3 -6 0 -23 8 -40 11 -21 13 -44 8 -82 l-7 -53 -17 45
-17 45 4 -68 c2 -37 9 -74 16 -82 7 -9 10 -18 7 -21 -3 -3 -15 11 -26 33 l-20
38 0 -40 c-1 -25 9 -56 24 -82 27 -48 18 -57 -15 -15 l-21 27 5 -35 c4 -19 14
-41 23 -47 20 -15 79 -17 88 -3 3 6 12 10 18 10 20 -1 -34 -40 -54 -40 -10 0
-19 -4 -19 -10 0 -20 77 -10 114 15 45 30 65 31 100 4 34 -27 35 -76 2 -112
-26 -28 -96 -67 -121 -67 -8 0 -15 -5 -15 -10 0 -24 142 21 184 58 18 16 19
16 12 -13 -10 -43 -32 -73 -69 -95 -40 -25 -11 -28 34 -4 83 42 108 254 30
254 -9 0 -26 7 -37 16 -18 15 -18 15 0 10 22 -7 56 1 56 14 0 5 -33 16 -74 25
-41 9 -81 22 -90 28 -10 8 -16 35 -18 82 l-3 70 38 6 c21 3 46 14 55 23 16 16
16 18 -2 32 -11 8 -34 14 -50 14 -30 0 -53 12 -114 58 -19 14 -33 18 -37 12z"/>
<path d="M5250 5198 c0 -10 6 -37 14 -60 38 -112 72 -264 99 -443 9 -60 12
-625 12 -2304 l0 -2223 -290 3 c-483 5 -595 4 -595 -3 0 -5 118 -8 263 -8 144
0 348 -3 452 -6 l190 -7 -2 2221 c-3 2161 -3 2225 -23 2363 -27 190 -79 414
-111 469 -7 13 -8 12 -9 -2z"/>
<path d="M320 4620 c-11 -70 -14 -460 -17 -2232 -2 -1462 0 -2148 7 -2148 7 0
10 680 10 2121 0 1475 3 2149 11 2214 14 122 7 153 -11 45z"/>
<path d="M1397 868 c-7 -18 -38 -98 -67 -177 -38 -102 -59 -145 -72 -149 -12
-3 -18 -14 -18 -33 l0 -29 85 0 85 0 0 30 c0 24 -4 30 -21 30 -17 0 -20 4 -15
23 3 12 6 25 6 30 0 4 33 7 74 7 58 0 75 -3 80 -16 11 -29 6 -44 -14 -44 -16
0 -20 -7 -20 -30 l0 -30 90 0 90 0 0 30 c0 19 -5 30 -14 30 -20 0 -22 4 -92
190 l-62 165 -51 3 c-49 3 -51 2 -64 -30z"/>
<path d="M1758 840 c4 -59 4 -60 33 -60 24 0 29 4 29 25 0 23 4 25 40 25 l40
0 0 -145 0 -145 -25 0 c-21 0 -25 -5 -25 -30 l0 -30 95 0 95 0 0 30 c0 25 -4
30 -25 30 l-25 0 0 145 0 145 40 0 c36 0 40 -2 40 -25 0 -22 4 -25 35 -25 l35
0 0 60 0 60 -192 0 -193 0 3 -60z"/>
<path d="M2280 870 c0 -27 3 -30 30 -30 l29 0 -2 -147 -2 -148 -28 -3 c-24 -3
-28 -7 -25 -30 3 -27 3 -27 101 -30 l97 -3 0 31 c0 25 -4 30 -25 30 -24 0 -25
3 -25 60 l0 60 85 0 85 0 0 -60 c0 -57 -1 -60 -25 -60 -21 0 -25 -5 -25 -30
l0 -30 95 0 95 0 0 30 c0 25 -4 30 -25 30 l-25 0 0 150 0 150 25 0 c21 0 25 5
25 30 l0 30 -95 0 -95 0 0 -30 c0 -25 4 -30 25 -30 24 0 25 -3 25 -55 l0 -55
-85 0 -85 0 0 55 c0 52 1 55 25 55 21 0 25 5 25 30 l0 30 -100 0 -100 0 0 -30z"/>
<path d="M2900 870 c0 -25 4 -30 25 -30 l25 0 0 -150 0 -150 -25 0 c-21 0 -25
-5 -25 -30 l0 -30 165 0 165 0 0 60 0 60 -30 0 c-25 0 -30 -4 -30 -25 0 -25
-2 -26 -65 -24 l-65 2 0 53 0 54 60 0 60 0 0 35 0 35 -60 0 -60 0 0 50 0 50
60 0 c58 0 60 -1 60 -26 0 -22 4 -25 32 -22 28 3 32 7 31 31 -1 15 -1 41 -2
57 l-1 30 -160 0 -160 0 0 -30z"/>
<path d="M3380 870 c0 -25 4 -30 25 -30 l25 0 0 -150 0 -150 -25 0 c-21 0 -25
-5 -25 -30 l0 -30 95 0 95 0 0 30 c0 25 -4 30 -25 30 -25 0 -25 0 -25 96 0 53
4 94 9 92 5 -1 50 -58 100 -125 86 -117 93 -123 126 -123 l35 0 0 179 0 180
28 3 c21 2 28 9 30 31 l3 27 -95 0 -96 0 0 -30 c0 -25 4 -30 25 -30 25 0 25
-1 25 -90 0 -49 -4 -90 -9 -90 -5 0 -49 54 -97 120 l-89 119 -67 1 -68 0 0
-30z"/>
<path d="M4147 893 c-2 -4 -33 -86 -68 -180 -49 -134 -68 -173 -81 -173 -13 0
-18 -8 -18 -30 l0 -30 85 0 85 0 0 30 c0 23 -4 30 -20 30 -22 0 -25 12 -10 41
9 16 22 19 79 19 63 0 69 -2 79 -25 16 -34 15 -35 -8 -35 -15 0 -20 -7 -20
-29 l0 -29 85 -1 85 -2 0 30 c0 20 -6 31 -17 33 -12 2 -37 56 -83 178 l-67
175 -50 3 c-28 2 -53 -1 -56 -5z"/>
<path d="M460 211 c69 -4 328 -8 575 -10 248 -1 511 -4 585 -6 74 -1 446 -5
825 -9 380 -3 798 -9 930 -12 161 -3 235 -2 225 5 -9 6 -139 10 -330 11 -173
0 -427 2 -565 5 -765 14 -2430 26 -2245 16z"/>
</g>
</svg>
